<?xml version="1.0" encoding="utf-8"?>
<!-- Generator: Adobe Illustrator 19.0.0, SVG Export Plug-In . SVG Version: 6.00 Build 0)  -->
<svg version="1.1" id="Layer_1" xmlns="http://www.w3.org/2000/svg" xmlns:xlink="http://www.w3.org/1999/xlink" x="0px" y="0px"
	 viewBox="-296 208.1 198.4 197.9" style="enable-background:new -296 208.1 198.4 197.9;" xml:space="preserve">
<style type="text/css">
	.st0{fill:#D7D7D7;}
</style>
<g>
	<path class="st0" d="M-169.1,342c-1.7,0-2.9,0.7-3.8,2c-1.2,1.8-1.8,5.3-1.8,10.6s0.6,8.8,1.8,10.5c0.9,1.4,2.2,2,3.8,2
		c1.7,0,2.9-0.7,3.8-2c1.2-1.8,1.8-5.3,1.8-10.6s-0.6-8.8-1.8-10.6C-166.1,342.7-167.4,342-169.1,342z"/>
	<path class="st0" d="M-223.7,299.2c-1.6,0-2.9,0.7-3.8,2c-1.2,1.8-1.8,5.3-1.8,10.6s0.6,8.8,1.8,10.6c0.9,1.3,2.2,2,3.8,2
		c1.7,0,2.9-0.7,3.9-2c1.2-1.8,1.8-5.3,1.8-10.6s-0.6-8.8-1.8-10.5C-220.7,299.9-222,299.2-223.7,299.2z"/>
	<path class="st0" d="M-139.5,321.3h0.3l-0.6-1c-2.4-7.9-6.5-15.1-11.7-21.2l-45.3-82.3l-43.4,78.8c-10.9,10.9-17.6,26-17.6,42.6
		c0,33.3,27,60.3,60.3,60.3s60.3-27,60.3-60.3C-137.1,332.3-138,326.6-139.5,321.3z M-236.6,328c-3.2-3.5-4.8-8.9-4.8-16.1
		c0-7.2,1.6-12.6,4.8-16.1c3.2-3.5,7.5-5.2,12.9-5.2c5.6,0,10,1.7,13.2,5.2c3.2,3.5,4.8,8.9,4.8,16.1c0,7.2-1.6,12.6-4.8,16.1
		c-3.2,3.5-7.5,5.2-12.9,5.2C-229,333.2-233.4,331.5-236.6,328z M-211.9,375.9h-11.5l43.1-85.4h11.1L-211.9,375.9z M-155.9,370.8
		c-3.2,3.5-7.5,5.2-12.9,5.2c-5.6,0-10-1.7-13.2-5.2c-3.2-3.5-4.8-8.9-4.8-16.2c0-7.2,1.6-12.6,4.8-16.1c3.2-3.5,7.5-5.2,13.1-5.2
		c5.6,0,9.9,1.7,13.1,5.2s4.8,8.9,4.8,16.1C-151.1,361.9-152.7,367.3-155.9,370.8z"/>
</g>
</svg>
