<?xml version="1.0" encoding="utf-8"?>
<!-- Generator: Adobe Illustrator 19.0.0, SVG Export Plug-In . SVG Version: 6.00 Build 0)  -->
<svg version="1.1" id="Layer_1" xmlns="http://www.w3.org/2000/svg" xmlns:xlink="http://www.w3.org/1999/xlink" x="0px" y="0px"
	 viewBox="-296 208.1 198.4 197.9" style="enable-background:new -296 208.1 198.4 197.9;" xml:space="preserve">
<style type="text/css">
	.st0{fill:#D7D7D7;}
</style>
<path class="st0" d="M-121.1,298.1c0-13.4-10.2-24.4-23.2-25.7c-2.9-11-13-19.1-24.9-19.1c-3,0-5.8,0.5-8.4,1.4
	c-5-15.2-19.3-26.1-36.2-26.1c-21.1,0-38.2,17.1-38.2,38.2c0,2,0.2,4,0.5,5.9c-12.2,2.1-21.5,12.7-21.5,25.4
	c0,13.7,10.6,24.8,24,25.7l0,0.1h102.9l0,0C-132.2,323.5-121.1,312.1-121.1,298.1z"/>
</svg>
