<?xml version="1.0" encoding="utf-8"?>
<!-- Generator: Adobe Illustrator 19.0.0, SVG Export Plug-In . SVG Version: 6.00 Build 0)  -->
<svg version="1.1" id="Layer_1" xmlns="http://www.w3.org/2000/svg" xmlns:xlink="http://www.w3.org/1999/xlink" x="0px" y="0px"
	 viewBox="-296 208.1 198.4 197.9" style="enable-background:new -296 208.1 198.4 197.9;" xml:space="preserve">
<style type="text/css">
	.st0{fill:#D7D7D7;}
	.st1{fill:none;stroke:#D7D7D7;stroke-width:5;stroke-linecap:round;stroke-miterlimit:10;}
</style>
<g>
	<path class="st0" d="M-197.5,223.5c2.6,0,4.7,2.1,4.7,4.7v92v6.9l6.5,2.4c12.2,4.6,20.4,16.5,20.4,29.5c0,17.4-14.2,31.6-31.6,31.6
		c-17.4,0-31.6-14.2-31.6-31.6c0-13.1,8.2-24.9,20.4-29.5l6.5-2.4v-6.9v-92C-202.1,225.6-200,223.5-197.5,223.5 M-197.5,213.5
		c-8.1,0-14.7,6.6-14.7,14.7c0,1.3,0,92,0,92c-15.7,5.9-26.9,21.1-26.9,38.9c0,23,18.6,41.6,41.6,41.6c23,0,41.6-18.6,41.6-41.6
		c0-17.8-11.2-33-26.9-38.9c0,0,0-90.7,0-92C-182.8,220.1-189.4,213.5-197.5,213.5L-197.5,213.5z"/>
</g>
<line class="st1" x1="-171.6" y1="316.1" x2="-140.2" y2="316.1"/>
<line class="st1" x1="-171.6" y1="225.8" x2="-140.2" y2="225.8"/>
<line class="st1" x1="-171.6" y1="316.1" x2="-140.2" y2="316.1"/>
<line class="st1" x1="-171.6" y1="316.1" x2="-140.2" y2="316.1"/>
<line class="st1" x1="-171.6" y1="271.8" x2="-140.2" y2="271.8"/>
<line class="st1" x1="-171.6" y1="293.4" x2="-152.9" y2="293.4"/>
<line class="st1" x1="-171.6" y1="293.4" x2="-152.9" y2="293.4"/>
<line class="st1" x1="-171.6" y1="293.4" x2="-152.9" y2="293.4"/>
<line class="st1" x1="-171.6" y1="293.4" x2="-152.9" y2="293.4"/>
<line class="st1" x1="-171.6" y1="293.4" x2="-152.9" y2="293.4"/>
<line class="st1" x1="-171.6" y1="248.1" x2="-152.9" y2="248.1"/>
<circle class="st0" cx="-197.5" cy="358.8" r="24.7"/>
</svg>
