<?xml version="1.0" encoding="utf-8"?>
<!-- Generator: Adobe Illustrator 19.0.0, SVG Export Plug-In . SVG Version: 6.00 Build 0)  -->
<svg version="1.1" id="Layer_1" xmlns="http://www.w3.org/2000/svg" xmlns:xlink="http://www.w3.org/1999/xlink" x="0px" y="0px"
	 viewBox="0 0 198.4 197.9" style="enable-background:new 0 0 198.4 197.9;" xml:space="preserve">
<style type="text/css">
	.st0{fill:#D7D7D7;stroke:#ED2224;stroke-width:2.834646e-002;stroke-miterlimit:10;}
	.st1{fill:#EAEAEA;}
</style>
<circle id="XMLID_2120_" class="st0" cx="99.2" cy="99.2" r="99.2"/>
<path id="XMLID_1715_" class="st1" d="M136.7,118.5c6.2,8.4,16.1,13.8,27.3,13.8c18.7,0,33.9-15.2,33.9-33.9c0-1.7-0.1-3.4-0.4-5.1
	c-2.5,16.3-16.5,28.8-33.5,28.8c-9.6,0-18.3-4-24.5-10.5c1.2-4,1.9-8.2,1.9-12.5c0-4.5-0.7-8.8-2-12.8c10.3,1.6,21.1-1.6,29-9.5
	c13.2-13.2,13.2-34.7,0-47.9c-1.2-1.2-2.5-2.3-3.9-3.3c9.8,13.3,8.7,32-3.3,44c-6.8,6.8-15.8,10.1-24.7,9.9
	c-4-7.6-10.2-13.9-17.9-18c8.3-6.2,13.6-16,13.6-27.2c0-18.7-15.2-33.9-33.9-33.9c-1.7,0-3.4,0.1-5.1,0.4
	c16.3,2.5,28.8,16.5,28.8,33.5c0,9.5-3.9,18.1-10.3,24.3c-4.1-1.3-8.5-2-13-2c-4.3,0-8.5,0.7-12.5,1.9c1.4-10.1-1.8-20.8-9.6-28.6
	c-13.2-13.2-34.7-13.2-47.9,0c-1.2,1.2-2.3,2.5-3.3,3.9c13.3-9.8,32-8.7,44,3.3c6.7,6.7,10,15.4,9.9,24.2c-7.8,4-14.1,10.3-18.2,18
	c-6.2-8.1-15.9-13.3-26.9-13.3c-18.7,0-33.9,15.2-33.9,33.9c0,1.7,0.1,3.4,0.4,5.1c2.5-16.3,16.5-28.8,33.5-28.8
	c9.4,0,17.9,3.8,24,10c-1.3,4.1-2,8.4-2,12.9c0,4.5,0.7,8.8,2,12.8c-10.1-1.3-20.7,1.9-28.4,9.6c-13.2,13.2-13.2,34.7,0,47.9
	c1.2,1.2,2.5,2.3,3.9,3.3c-9.8-13.3-8.7-32,3.3-44c6.7-6.7,15.4-10,24.1-9.9c4.1,7.7,10.5,14.1,18.3,18.1
	c-8.2,6.2-13.5,16-13.5,27.1c0,18.7,15.2,33.9,33.9,33.9c1.7,0,3.4-0.1,5.1-0.4C88.8,195.1,76.3,181,76.3,164
	c0-9.5,3.9-18.1,10.2-24.2c3.9,1.2,8.1,1.9,12.4,1.9c4.6,0,9-0.7,13.1-2.1c-1.5,10.2,1.7,21,9.6,28.9c13.2,13.2,34.7,13.2,47.9,0
	c1.2-1.2,2.3-2.5,3.3-3.9c-13.3,9.8-32,8.7-44-3.3c-6.8-6.8-10.1-15.7-9.9-24.6C126.6,132.6,132.8,126.3,136.7,118.5z M79.7,123.7
	c-0.6-0.7-1.2-1.4-1.9-2c-0.9-0.9-1.8-1.7-2.8-2.5c-3.7-4.4-6.1-9.9-6.9-15.8c0.1-1.1,0.2-2.2,0.2-3.3c0-1.4-0.1-2.8-0.3-4.2
	c0.6-5.9,2.9-11.2,6.4-15.7c0.8-0.7,1.7-1.4,2.5-2.2c1-1,1.8-2,2.7-3c4.5-3.7,10.1-6.1,16.3-6.7c0.9,0.1,1.8,0.1,2.8,0.1
	c1.1,0,2.2-0.1,3.2-0.2c6.9,0.6,13.1,3.4,18,7.8c0.3,0.3,0.6,0.6,0.9,0.9c0.5,0.5,1,0.9,1.5,1.4c5,5.5,8.1,12.9,8.1,21
	c0,16.4-12.7,29.8-28.7,31.1c-0.5,0-1-0.1-1.5-0.1c-0.9,0-1.8,0-2.7,0.1C90.7,129.9,84.6,127.5,79.7,123.7z"/>
</svg>
