<?xml version="1.0" encoding="utf-8"?>
<!-- Generator: Adobe Illustrator 19.0.0, SVG Export Plug-In . SVG Version: 6.00 Build 0)  -->
<svg version="1.1" id="Layer_1" xmlns="http://www.w3.org/2000/svg" xmlns:xlink="http://www.w3.org/1999/xlink" x="0px" y="0px"
	 viewBox="-296 208.1 198.4 197.9" style="enable-background:new -296 208.1 198.4 197.9;" xml:space="preserve">
<style type="text/css">
	.st0{fill:#0F0F0F;}
</style>
<g>
	<path class="st0" d="M-244.1,386.5h-11.4l-6.4-24.8c-0.2-0.9-0.6-2.7-1.2-5.5c-0.6-2.8-0.9-4.6-1-5.6c-0.1,1.2-0.5,3-1,5.6
		c-0.5,2.6-0.9,4.4-1.2,5.5l-6.4,24.7H-284l-12-47.2h9.8l6,25.8c1.1,4.8,1.8,8.9,2.3,12.4c0.1-1.2,0.4-3.1,0.9-5.7
		c0.5-2.6,0.9-4.6,1.3-6l6.9-26.4h9.5l6.9,26.4c0.3,1.2,0.7,3,1.1,5.4c0.5,2.4,0.8,4.5,1,6.3c0.2-1.7,0.6-3.8,1-6.3
		c0.5-2.5,0.9-4.5,1.3-6.1l6-25.8h9.8L-244.1,386.5z"/>
	<path class="st0" d="M-208,386.5h-10v-38.9h-12.8v-8.3h35.6v8.3H-208V386.5z"/>
	<path class="st0" d="M-149.2,386.5h-10v-20.4h-18.7v20.4h-10v-47.2h10v18.5h18.7v-18.5h10V386.5z"/>
	<path class="st0" d="M-127.3,368.4v18.1h-10v-47.2h13.7c6.4,0,11.2,1.2,14.2,3.5c3.1,2.3,4.6,5.9,4.6,10.6c0,2.8-0.8,5.2-2.3,7.4
		s-3.7,3.9-6.5,5.1c7.1,10.6,11.7,17.5,13.9,20.6h-11.1l-11.3-18.1H-127.3z M-127.3,360.2h3.2c3.2,0,5.5-0.5,7-1.6
		c1.5-1.1,2.3-2.7,2.3-5c0-2.2-0.8-3.8-2.3-4.8c-1.5-0.9-3.9-1.4-7.1-1.4h-3V360.2z"/>
</g>
<g id="XMLID_304_">
	<path id="XMLID_312_" class="st0" d="M-193.9,233.6c-1.6-5.7-3.7-14.2-6.2-25.3h-0.6l-2.2,8.6l-4.7,16.9l-23,76.9
		c9,2.3,18.8,3.6,29.1,3.6c10.6,0,20.8-1.4,30.1-3.9L-193.9,233.6z"/>
	<path id="XMLID_311_" class="st0" d="M-132.9,223.2l-18.6,76.5c20.8-9.8,34.5-26,34.5-44.3C-117.1,243.4-122.9,232.2-132.9,223.2z"
		/>
	<path id="XMLID_310_" class="st0" d="M-269.6,222.9c-10.2,9.1-16.2,20.3-16.2,32.5c0,18.8,14.4,35.4,36.1,45.1L-269.6,222.9z"/>
	<path id="XMLID_302_" class="st0" d="M-180.8,225.6l7.5,25.8c5,18.3,8.1,30.3,9.2,36.2h0.6c0.6-5.1,3.3-18.6,8.4-40.5l8.9-37.2
		L-180.8,225.6z"/>
	<path id="XMLID_303_" class="st0" d="M-256.1,208.1l9.8,39.7c4.2,18.2,7,31.5,8.4,40.1h0.6c4.1-18.2,7.1-30.3,9-36.2l8.2-27.1
		L-256.1,208.1z"/>
</g>
</svg>
